<svg xmlns="http://www.w3.org/2000/svg" version="1.1" xmlns:xlink="http://www.w3.org/1999/xlink" xmlns:svgjs="http://svgjs.dev/svgjs" width="1366" height="768" preserveAspectRatio="none" viewBox="0 0 1366 768">
    <g mask="url(&quot;#SvgjsMask1016&quot;)" fill="none">
        <rect width="1366" height="768" x="0" y="0" fill="url(&quot;#SvgjsLinearGradient1017&quot;)"></rect>
        <path d="M1411.533333333333 768L0 768 L0 468Q56.34 456.05, 68.3 512.39Q71.94 402.19, 182.13333333333333 405.83Q233.46 343.32, 295.96666666666664 394.64Q352.44 382.81, 364.26666666666665 439.29Q438.79 399.98, 478.09999999999997 474.51Q503.8 431.91, 546.4 457.61Q586.44 383.81, 660.2333333333333 423.85Q703.94 399.26, 728.5333333333333 442.97Q746.2 392.34, 796.8333333333333 410Q840.26 385.13, 865.1333333333332 428.55Q946.01 395.6, 978.9666666666666 476.48Q1004.83 434.04, 1047.2666666666667 459.9Q1084.71 383.51, 1161.1 420.96Q1207.97 399.53, 1229.3999999999999 446.4Q1286.94 435.64, 1297.6999999999998 493.18Q1342.67 424.31, 1411.533333333333 469.28z" fill="#182f5d"></path>
        <path d="M1388.7666666666664 768L0 768 L0 496.08Q51.89 434.14, 113.83333333333333 486.03Q187.66 446.02, 227.66666666666666 519.85Q295.04 473.39, 341.5 540.76Q435.16 520.58, 455.3333333333333 614.24Q484.93 530, 569.1666666666666 559.6Q587.83 509.97, 637.4666666666666 528.63Q680.35 457.68, 751.3 500.56Q849.07 484.49, 865.1333333333333 582.26Q887.82 536.65, 933.4333333333333 559.34Q943.51 501.12, 1001.7333333333332 511.2Q1029.2 470.37, 1070.0333333333333 497.84Q1123.14 482.64, 1138.3333333333333 535.75Q1206.83 490.41, 1252.1666666666665 558.91Q1262.66 501.1, 1320.4666666666665 511.59Q1362.05 484.87, 1388.7666666666664 526.45z" fill="#25467d"></path>
        <path d="M1411.5333333333328 768L0 768 L0 689.94Q-3.4 618.24, 68.3 614.84Q86.68 564.92, 136.6 583.29Q178.59 556.98, 204.89999999999998 598.97Q276.07 556.3, 318.7333333333333 627.47Q373.57 614, 387.0333333333333 668.84Q459.79 627.77, 500.8666666666666 700.53Q512.02 597.85, 614.6999999999999 609Q655.83 536.3, 728.5333333333333 577.43Q771.66 552.25, 796.8333333333333 595.38Q844.59 574.84, 865.1333333333332 622.59Q911.98 601.14, 933.4333333333332 647.98Q990.11 636.36, 1001.7333333333331 693.04Q1022.78 645.79, 1070.033333333333 666.84Q1095.26 578.24, 1183.8666666666663 603.47Q1259.88 565.65, 1297.6999999999996 641.67Q1381.13 611.26, 1411.5333333333328 694.69z" fill="#356cb1"></path>
        <path d="M1457.0666666666664 768L0 768 L0 702.81Q57.72 692.23, 68.3 749.94Q115.45 683.26, 182.13333333333333 730.41Q191.58 671.56, 250.43333333333334 681.01Q315.52 632.26, 364.26666666666665 697.35Q431.59 696.37, 432.56666666666666 763.69Q461.52 678.81, 546.4 707.76Q608.93 656.46, 660.2333333333333 718.99Q671.3 661.75, 728.5333333333333 672.82Q795.67 626.12, 842.3666666666667 693.26Q929.12 711.71, 910.6666666666666 798.46Q906.11 680.07, 1024.5 675.52Q1085.35 622.53, 1138.3333333333333 683.38Q1179.55 656.3, 1206.6333333333332 697.51Q1247.22 669.79, 1274.9333333333332 710.38Q1323.17 690.32, 1343.2333333333331 738.55Q1428.72 710.21, 1457.0666666666664 795.7z" fill="white"></path>
    </g>
    <defs>
        <mask id="SvgjsMask1016">
            <rect width="1366" height="768" fill="#ffffff"></rect>
        </mask>
        <linearGradient x1="50%" y1="0%" x2="50%" y2="100%" gradientUnits="userSpaceOnUse" id="SvgjsLinearGradient1017">
            <stop stop-color="#0e2a47" offset="0"></stop>
            <stop stop-color="rgba(0, 69, 158, 1)" offset="0.38"></stop>
            <stop stop-color="rgba(177, 69, 8, 1)" offset="0.66"></stop>
        </linearGradient>
    </defs>
</svg>