 <svg xmlns="http://www.w3.org/2000/svg" version="1.1" xmlns:xlink="http://www.w3.org/1999/xlink" xmlns:svgjs="http://svgjs.dev/svgjs" width="1440" height="560" preserveAspectRatio="none" viewBox="0 0 1440 560">
      <g mask="url(&quot;#SvgjsMask1786&quot;)" fill="none">
          <rect width="1440" height="560" x="0" y="0" fill="url(&quot;#SvgjsLinearGradient1787&quot;)"></rect>
          <use xlink:href="#SvgjsG1792" transform="translate(0, 0)" fill="#0f457b"></use>
          <use xlink:href="#SvgjsG1792" transform="translate(0, 475)" fill="#0f457b"></use>
          <use xlink:href="#SvgjsG1792" transform="translate(475, 0)" fill="#0f457b"></use>
          <use xlink:href="#SvgjsG1792" transform="translate(475, 475)" fill="#0f457b"></use>
          <use xlink:href="#SvgjsG1792" transform="translate(950, 0)" fill="#0f457b"></use>
          <use xlink:href="#SvgjsG1792" transform="translate(950, 475)" fill="#0f457b"></use>
          <use xlink:href="#SvgjsG1792" transform="translate(1425, 0)" fill="#0f457b"></use>
          <use xlink:href="#SvgjsG1792" transform="translate(1425, 475)" fill="#0f457b"></use>
      </g>
      <defs>
          <mask id="SvgjsMask1786">
              <rect width="1440" height="560" fill="#ffffff"></rect>
          </mask>
          <linearGradient x1="84.72%" y1="-39.29%" x2="15.28%" y2="139.29%" gradientUnits="userSpaceOnUse" id="SvgjsLinearGradient1787">
              <stop stop-color="#0e2a47" offset="0"></stop>
              <stop stop-color="rgba(0, 69, 193, 0.69)" offset="1"></stop>
          </linearGradient>
          <g id="SvgjsG1788">
              <path d="M3.474 10.969C3.474 7.665 8.077 0.361 8.077 0.361s4.602 7.305 4.602 10.608c0 2.247-1.506 4.771-4.602 4.771-3.095 0-4.603-2.524-4.603-4.771z" fill-rule="evenodd"></path>
          </g>
          <g id="SvgjsG1789">
              <path d="M7.713 15.485C3.459 15.485 0 12.025 0 7.768 0 3.513 3.459 0.051 7.713 0.051S15.432 3.513 15.432 7.768c0 4.257-3.465 7.716-7.719 7.717z m0-1.91c3.201 0 5.81-2.604 5.81-5.809 0-3.199-2.61-5.807-5.81-5.807-3.202 0-5.804 2.609-5.804 5.807-0.001 3.206 2.602 5.809 5.804 5.809z"></path>
              <path d="M7.753 8.787a0.574 0.574 0 0 1-0.554-0.042 0.578 0.578 0 0 1-0.259-0.399L6.931 3.862a0.58 0.58 0 0 1 1.162 0v3.478l2.975-1.4a0.578 0.578 0 0 1 0.773 0.275c0.138 0.292 0.011 0.637-0.276 0.774l-3.81 1.798z"></path>
          </g>
          <g id="SvgjsG1790">
              <path d="M2.524 8.637H0.014V7.308h2.51v1.329zM3.656 4.576L1.884 2.804l0.935-0.935 1.772 1.772-0.935 0.935z m0 6.817l0.935 0.935-1.772 1.773-0.934-0.936 1.771-1.772z m4.997-8.884h-1.33V-0.002h1.33v2.511z m-1.33 10.952h1.33v2.51h-1.33v-2.509zM12.344 4.576l-0.96-0.935 1.796-1.772 0.935 0.935-1.772 1.772z m0 6.792l1.771 1.797-0.935 0.936-1.771-1.774 0.936-0.96z m3.643-4.06v1.329h-2.51V7.308h2.509z"></path>
              <path d="M3.702 7.984a4.184 4.184 0 1 0 8.368 0 4.184 4.184 0 1 0-8.368 0"></path>
          </g>
          <g id="SvgjsG1791">
              <path d="M0 10.392a3.585 3.585 0 1 0 7.169 0 3.585 3.585 0 1 0-7.169 0"></path>
              <path d="M7.997 9.975a4.001 4.001 0 1 0 8.003 0 4.001 4.001 0 1 0-8.003 0"></path>
              <path d="M2.655 7.156a5.054 5.054 0 1 0 10.108 0 5.054 5.054 0 1 0-10.108 0"></path>
              <path d="M3.585 7.983H12.5v5.993H3.585z"></path>
          </g>
          <g id="SvgjsG1792">
              <use xlink:href="#SvgjsG1788" transform="translate(0, 0) scale(1.9)" fill="#0f457b"></use>
              <use xlink:href="#SvgjsG1789" transform="translate(0, 47.5) scale(1.9)" fill="#0f457b"></use>
              <use xlink:href="#SvgjsG1790" transform="translate(0, 95) scale(1.9)" fill="#0f457b"></use>
              <use xlink:href="#SvgjsG1791" transform="translate(0, 142.5) scale(1.9)" fill="#0f457b"></use>
              <use xlink:href="#SvgjsG1788" transform="translate(0, 190) scale(1.9)" fill="#0f457b"></use>
              <use xlink:href="#SvgjsG1789" transform="translate(0, 237.5) scale(1.9)" fill="#0f457b"></use>
              <use xlink:href="#SvgjsG1790" transform="translate(0, 285) scale(1.9)" fill="#0f457b"></use>
              <use xlink:href="#SvgjsG1791" transform="translate(0, 332.5) scale(1.9)" fill="#0f457b"></use>
              <use xlink:href="#SvgjsG1788" transform="translate(0, 380) scale(1.9)" fill="#0f457b"></use>
              <use xlink:href="#SvgjsG1789" transform="translate(0, 427.5) scale(1.9)" fill="#0f457b"></use>
              <use xlink:href="#SvgjsG1789" transform="translate(47.5, 0) scale(1.9)" fill="#0f457b"></use>
              <use xlink:href="#SvgjsG1790" transform="translate(47.5, 47.5) scale(1.9)" fill="#0f457b"></use>
              <use xlink:href="#SvgjsG1791" transform="translate(47.5, 95) scale(1.9)" fill="#0f457b"></use>
              <use xlink:href="#SvgjsG1788" transform="translate(47.5, 142.5) scale(1.9)" fill="#0f457b"></use>
              <use xlink:href="#SvgjsG1789" transform="translate(47.5, 190) scale(1.9)" fill="#0f457b"></use>
              <use xlink:href="#SvgjsG1790" transform="translate(47.5, 237.5) scale(1.9)" fill="#0f457b"></use>
              <use xlink:href="#SvgjsG1791" transform="translate(47.5, 285) scale(1.9)" fill="#0f457b"></use>
              <use xlink:href="#SvgjsG1788" transform="translate(47.5, 332.5) scale(1.9)" fill="#0f457b"></use>
              <use xlink:href="#SvgjsG1789" transform="translate(47.5, 380) scale(1.9)" fill="#0f457b"></use>
              <use xlink:href="#SvgjsG1790" transform="translate(47.5, 427.5) scale(1.9)" fill="#0f457b"></use>
              <use xlink:href="#SvgjsG1790" transform="translate(95, 0) scale(1.9)" fill="#0f457b"></use>
              <use xlink:href="#SvgjsG1791" transform="translate(95, 47.5) scale(1.9)" fill="#0f457b"></use>
              <use xlink:href="#SvgjsG1788" transform="translate(95, 95) scale(1.9)" fill="#0f457b"></use>
              <use xlink:href="#SvgjsG1789" transform="translate(95, 142.5) scale(1.9)" fill="#0f457b"></use>
              <use xlink:href="#SvgjsG1790" transform="translate(95, 190) scale(1.9)" fill="#0f457b"></use>
              <use xlink:href="#SvgjsG1791" transform="translate(95, 237.5) scale(1.9)" fill="#0f457b"></use>
              <use xlink:href="#SvgjsG1788" transform="translate(95, 285) scale(1.9)" fill="#0f457b"></use>
              <use xlink:href="#SvgjsG1789" transform="translate(95, 332.5) scale(1.9)" fill="#0f457b"></use>
              <use xlink:href="#SvgjsG1790" transform="translate(95, 380) scale(1.9)" fill="#0f457b"></use>
              <use xlink:href="#SvgjsG1791" transform="translate(95, 427.5) scale(1.9)" fill="#0f457b"></use>
              <use xlink:href="#SvgjsG1791" transform="translate(142.5, 0) scale(1.9)" fill="#0f457b"></use>
              <use xlink:href="#SvgjsG1788" transform="translate(142.5, 47.5) scale(1.9)" fill="#0f457b"></use>
              <use xlink:href="#SvgjsG1789" transform="translate(142.5, 95) scale(1.9)" fill="#0f457b"></use>
              <use xlink:href="#SvgjsG1790" transform="translate(142.5, 142.5) scale(1.9)" fill="#0f457b"></use>
              <use xlink:href="#SvgjsG1791" transform="translate(142.5, 190) scale(1.9)" fill="#0f457b"></use>
              <use xlink:href="#SvgjsG1788" transform="translate(142.5, 237.5) scale(1.9)" fill="#0f457b"></use>
              <use xlink:href="#SvgjsG1789" transform="translate(142.5, 285) scale(1.9)" fill="#0f457b"></use>
              <use xlink:href="#SvgjsG1790" transform="translate(142.5, 332.5) scale(1.9)" fill="#0f457b"></use>
              <use xlink:href="#SvgjsG1791" transform="translate(142.5, 380) scale(1.9)" fill="#0f457b"></use>
              <use xlink:href="#SvgjsG1788" transform="translate(142.5, 427.5) scale(1.9)" fill="#0f457b"></use>
              <use xlink:href="#SvgjsG1788" transform="translate(190, 0) scale(1.9)" fill="#0f457b"></use>
              <use xlink:href="#SvgjsG1789" transform="translate(190, 47.5) scale(1.9)" fill="#0f457b"></use>
              <use xlink:href="#SvgjsG1790" transform="translate(190, 95) scale(1.9)" fill="#0f457b"></use>
              <use xlink:href="#SvgjsG1791" transform="translate(190, 142.5) scale(1.9)" fill="#0f457b"></use>
              <use xlink:href="#SvgjsG1788" transform="translate(190, 190) scale(1.9)" fill="#0f457b"></use>
              <use xlink:href="#SvgjsG1789" transform="translate(190, 237.5) scale(1.9)" fill="#0f457b"></use>
              <use xlink:href="#SvgjsG1790" transform="translate(190, 285) scale(1.9)" fill="#0f457b"></use>
              <use xlink:href="#SvgjsG1791" transform="translate(190, 332.5) scale(1.9)" fill="#0f457b"></use>
              <use xlink:href="#SvgjsG1788" transform="translate(190, 380) scale(1.9)" fill="#0f457b"></use>
              <use xlink:href="#SvgjsG1789" transform="translate(190, 427.5) scale(1.9)" fill="#0f457b"></use>
              <use xlink:href="#SvgjsG1789" transform="translate(237.5, 0) scale(1.9)" fill="#0f457b"></use>
              <use xlink:href="#SvgjsG1790" transform="translate(237.5, 47.5) scale(1.9)" fill="#0f457b"></use>
              <use xlink:href="#SvgjsG1791" transform="translate(237.5, 95) scale(1.9)" fill="#0f457b"></use>
              <use xlink:href="#SvgjsG1788" transform="translate(237.5, 142.5) scale(1.9)" fill="#0f457b"></use>
              <use xlink:href="#SvgjsG1789" transform="translate(237.5, 190) scale(1.9)" fill="#0f457b"></use>
              <use xlink:href="#SvgjsG1790" transform="translate(237.5, 237.5) scale(1.9)" fill="#0f457b"></use>
              <use xlink:href="#SvgjsG1791" transform="translate(237.5, 285) scale(1.9)" fill="#0f457b"></use>
              <use xlink:href="#SvgjsG1788" transform="translate(237.5, 332.5) scale(1.9)" fill="#0f457b"></use>
              <use xlink:href="#SvgjsG1789" transform="translate(237.5, 380) scale(1.9)" fill="#0f457b"></use>
              <use xlink:href="#SvgjsG1790" transform="translate(237.5, 427.5) scale(1.9)" fill="#0f457b"></use>
              <use xlink:href="#SvgjsG1790" transform="translate(285, 0) scale(1.9)" fill="#0f457b"></use>
              <use xlink:href="#SvgjsG1791" transform="translate(285, 47.5) scale(1.9)" fill="#0f457b"></use>
              <use xlink:href="#SvgjsG1788" transform="translate(285, 95) scale(1.9)" fill="#0f457b"></use>
              <use xlink:href="#SvgjsG1789" transform="translate(285, 142.5) scale(1.9)" fill="#0f457b"></use>
              <use xlink:href="#SvgjsG1790" transform="translate(285, 190) scale(1.9)" fill="#0f457b"></use>
              <use xlink:href="#SvgjsG1791" transform="translate(285, 237.5) scale(1.9)" fill="#0f457b"></use>
              <use xlink:href="#SvgjsG1788" transform="translate(285, 285) scale(1.9)" fill="#0f457b"></use>
              <use xlink:href="#SvgjsG1789" transform="translate(285, 332.5) scale(1.9)" fill="#0f457b"></use>
              <use xlink:href="#SvgjsG1790" transform="translate(285, 380) scale(1.9)" fill="#0f457b"></use>
              <use xlink:href="#SvgjsG1791" transform="translate(285, 427.5) scale(1.9)" fill="#0f457b"></use>
              <use xlink:href="#SvgjsG1791" transform="translate(332.5, 0) scale(1.9)" fill="#0f457b"></use>
              <use xlink:href="#SvgjsG1788" transform="translate(332.5, 47.5) scale(1.9)" fill="#0f457b"></use>
              <use xlink:href="#SvgjsG1789" transform="translate(332.5, 95) scale(1.9)" fill="#0f457b"></use>
              <use xlink:href="#SvgjsG1790" transform="translate(332.5, 142.5) scale(1.9)" fill="#0f457b"></use>
              <use xlink:href="#SvgjsG1791" transform="translate(332.5, 190) scale(1.9)" fill="#0f457b"></use>
              <use xlink:href="#SvgjsG1788" transform="translate(332.5, 237.5) scale(1.9)" fill="#0f457b"></use>
              <use xlink:href="#SvgjsG1789" transform="translate(332.5, 285) scale(1.9)" fill="#0f457b"></use>
              <use xlink:href="#SvgjsG1790" transform="translate(332.5, 332.5) scale(1.9)" fill="#0f457b"></use>
              <use xlink:href="#SvgjsG1791" transform="translate(332.5, 380) scale(1.9)" fill="#0f457b"></use>
              <use xlink:href="#SvgjsG1788" transform="translate(332.5, 427.5) scale(1.9)" fill="#0f457b"></use>
              <use xlink:href="#SvgjsG1788" transform="translate(380, 0) scale(1.9)" fill="#0f457b"></use>
              <use xlink:href="#SvgjsG1789" transform="translate(380, 47.5) scale(1.9)" fill="#0f457b"></use>
              <use xlink:href="#SvgjsG1790" transform="translate(380, 95) scale(1.9)" fill="#0f457b"></use>
              <use xlink:href="#SvgjsG1791" transform="translate(380, 142.5) scale(1.9)" fill="#0f457b"></use>
              <use xlink:href="#SvgjsG1788" transform="translate(380, 190) scale(1.9)" fill="#0f457b"></use>
              <use xlink:href="#SvgjsG1789" transform="translate(380, 237.5) scale(1.9)" fill="#0f457b"></use>
              <use xlink:href="#SvgjsG1790" transform="translate(380, 285) scale(1.9)" fill="#0f457b"></use>
              <use xlink:href="#SvgjsG1791" transform="translate(380, 332.5) scale(1.9)" fill="#0f457b"></use>
              <use xlink:href="#SvgjsG1788" transform="translate(380, 380) scale(1.9)" fill="#0f457b"></use>
              <use xlink:href="#SvgjsG1789" transform="translate(380, 427.5) scale(1.9)" fill="#0f457b"></use>
              <use xlink:href="#SvgjsG1789" transform="translate(427.5, 0) scale(1.9)" fill="#0f457b"></use>
              <use xlink:href="#SvgjsG1790" transform="translate(427.5, 47.5) scale(1.9)" fill="#0f457b"></use>
              <use xlink:href="#SvgjsG1791" transform="translate(427.5, 95) scale(1.9)" fill="#0f457b"></use>
              <use xlink:href="#SvgjsG1788" transform="translate(427.5, 142.5) scale(1.9)" fill="#0f457b"></use>
              <use xlink:href="#SvgjsG1789" transform="translate(427.5, 190) scale(1.9)" fill="#0f457b"></use>
              <use xlink:href="#SvgjsG1790" transform="translate(427.5, 237.5) scale(1.9)" fill="#0f457b"></use>
              <use xlink:href="#SvgjsG1791" transform="translate(427.5, 285) scale(1.9)" fill="#0f457b"></use>
              <use xlink:href="#SvgjsG1788" transform="translate(427.5, 332.5) scale(1.9)" fill="#0f457b"></use>
              <use xlink:href="#SvgjsG1789" transform="translate(427.5, 380) scale(1.9)" fill="#0f457b"></use>
              <use xlink:href="#SvgjsG1790" transform="translate(427.5, 427.5) scale(1.9)" fill="#0f457b"></use>
          </g>
      </defs>
  </svg>