<svg xmlns="http://www.w3.org/2000/svg" version="1.1" xmlns:xlink="http://www.w3.org/1999/xlink" xmlns:svgjs="http://svgjs.dev/svgjs" width="1366" height="768" preserveAspectRatio="none" viewBox="0 0 1366 768">
    <g mask="url(&quot;#SvgjsMask2496&quot;)" fill="none">
        <rect width="1366" height="768" x="0" y="0" fill="url(&quot;#SvgjsLinearGradient2497&quot;)"></rect>
        <path d="M1388.7666666666662 768L0 768 L0 403.19Q74.66 409.55, 68.3 484.21Q109.02 456.63, 136.6 497.35Q136.9 429.36, 204.89999999999998 429.66Q254.02 364.94, 318.7333333333333 414.06Q407.16 388.66, 432.5666666666666 477.09Q476.79 453.01, 500.8666666666666 497.23Q541.68 424.21, 614.6999999999999 465.03Q624.67 406.7, 682.9999999999999 416.67Q722.22 387.6, 751.2999999999998 426.82Q828.37 390.05, 865.1333333333332 467.12Q885.59 419.28, 933.4333333333332 439.74Q996.47 388.95, 1047.2666666666664 451.99Q1073.74 364.63, 1161.0999999999997 391.11Q1233.4 349.58, 1274.933333333333 421.88Q1322.09 355.21, 1388.7666666666662 402.37z" fill="rgba(33, 82, 142, 1)"></path>
        <path d="M1388.7666666666664 768L0 768 L0 564.47Q-5.74 490.43, 68.3 484.68Q177.13 479.67, 182.13333333333333 588.5Q203.56 541.63, 250.43333333333334 563.06Q252.85 497.17, 318.73333333333335 499.59Q409.28 521.84, 387.03333333333336 612.38Q380.3 491.81, 500.8666666666667 485.07Q574.9 445.27, 614.7 519.31Q658.52 494.83, 683 538.66Q773.73 515.55, 796.8333333333334 606.28Q814.07 509.68, 910.6666666666667 526.91Q953.51 455.92, 1024.5 498.77Q1064.49 470.45, 1092.8 510.44Q1183.87 487.67, 1206.6333333333332 578.74Q1216.1 474.38, 1320.4666666666665 483.85Q1375.21 470.3, 1388.7666666666664 525.04z" fill="rgba(38, 129, 192, 1)"></path>
        <path d="M1457.0666666666664 768L0 768 L0 696.99Q58.5 641.66, 113.83333333333333 700.16Q126.89 644.92, 182.13333333333333 657.97Q203.15 610.69, 250.43333333333334 631.7Q280.16 547.59, 364.26666666666665 577.32Q407.23 551.98, 432.56666666666666 594.94Q493.5 587.57, 500.8666666666667 648.51Q525.83 559.64, 614.7 584.61Q674.61 576.22, 683 636.12Q736.34 621.16, 751.3 674.5Q756.68 611.59, 819.5999999999999 616.97Q866.52 550.06, 933.4333333333333 596.98Q1009.68 559.39, 1047.2666666666667 635.64Q1074.76 549.3, 1161.1 576.8Q1232.51 534.38, 1274.9333333333332 605.79Q1335.62 598.18, 1343.2333333333331 658.87Q1411.98 613.78, 1457.0666666666664 682.53z" fill="rgba(30, 168, 223, 1)"></path>
        <path d="M1388.7666666666664 768L0 768 L0 676.19Q110.93 673.28, 113.83333333333333 784.21Q133.15 735.23, 182.13333333333333 754.55Q216.09 674.67, 295.96666666666664 708.62Q367.35 666.17, 409.79999999999995 737.56Q444.17 658.09, 523.6333333333333 692.46Q590.52 645.52, 637.4666666666667 712.41Q656.02 662.66, 705.7666666666667 681.21Q783.37 644.98, 819.6 722.59Q865.94 700.63, 887.9 746.97Q890.37 681.14, 956.1999999999999 683.6Q1071.45 685.02, 1070.0333333333333 800.27Q1064.02 725.96, 1138.3333333333333 719.95Q1188.45 656.24, 1252.1666666666665 706.36Q1273.09 658.98, 1320.4666666666665 679.9Q1387.74 678.87, 1388.7666666666664 746.14z" fill="white"></path>
    </g>
    <defs>
        <mask id="SvgjsMask2496">
            <rect width="1366" height="768" fill="#ffffff"></rect>
        </mask>
        <linearGradient x1="50%" y1="0%" x2="50%" y2="100%" gradientUnits="userSpaceOnUse" id="SvgjsLinearGradient2497">
            <stop stop-color="#0e2a47" offset="0"></stop>
            <stop stop-color="rgba(11, 166, 255, 1)" offset="0.13"></stop>
            <stop stop-color="rgba(255, 218, 150, 1)" offset="0.36"></stop>
        </linearGradient>
    </defs>
</svg>